<svg width="413" height="55" viewBox="0 0 413 55" fill="none" xmlns="http://www.w3.org/2000/svg">
<rect x="246" y="7" width="6" height="6" fill="#4F772D"/>
<rect x="240" y="1" width="6" height="6" fill="#132A13"/>
<rect x="246" y="1" width="6" height="6" fill="#132A13"/>
<rect x="252" y="1" width="6" height="6" fill="#132A13"/>
<rect x="258" y="1" width="6" height="6" fill="#132A13"/>
<rect x="264" y="1" width="6" height="6" fill="#132A13"/>
<rect x="270" y="1" width="6" height="6" fill="#132A13"/>
<rect x="276" y="1" width="6" height="6" fill="#132A13"/>
<rect x="276" y="7" width="6" height="6" fill="#132A13"/>
<rect x="282" y="7" width="6" height="6" fill="#132A13"/>
<rect x="240" y="7" width="6" height="6" fill="#132A13"/>
<rect x="282" y="13" width="6" height="6" fill="#132A13"/>
<rect x="240" y="13" width="6" height="6" fill="#132A13"/>
<rect x="288" y="13" width="6" height="6" fill="#132A13"/>
<rect x="282" y="19" width="6" height="6" fill="#132A13"/>
<rect x="240" y="19" width="6" height="6" fill="#132A13"/>
<rect x="288" y="19" width="6" height="6" fill="#132A13"/>
<rect x="282" y="25" width="6" height="6" fill="#132A13"/>
<rect x="240" y="25" width="6" height="6" fill="#132A13"/>
<rect x="288" y="25" width="6" height="6" fill="#132A13"/>
<rect x="282" y="31" width="6" height="6" fill="#132A13"/>
<rect x="240" y="31" width="6" height="6" fill="#132A13"/>
<rect x="288" y="31" width="6" height="6" fill="#132A13"/>
<rect x="282" y="37" width="6" height="6" fill="#132A13"/>
<rect x="240" y="37" width="6" height="6" fill="#132A13"/>
<rect x="288" y="37" width="6" height="6" fill="#132A13"/>
<rect x="282" y="43" width="6" height="6" fill="#132A13"/>
<rect x="240" y="43" width="6" height="6" fill="#132A13"/>
<rect x="246" y="43" width="6" height="6" fill="#132A13"/>
<rect x="246" y="49" width="6" height="6" fill="#132A13"/>
<rect x="252" y="43" width="6" height="6" fill="#132A13"/>
<rect x="252" y="49" width="6" height="6" fill="#132A13"/>
<rect x="258" y="43" width="6" height="6" fill="#132A13"/>
<rect x="258" y="31" width="6" height="6" fill="#132A13"/>
<rect x="258" y="13" width="6" height="6" fill="#132A13"/>
<rect x="258" y="49" width="6" height="6" fill="#132A13"/>
<rect x="258" y="37" width="6" height="6" fill="#132A13"/>
<rect x="258" y="19" width="6" height="6" fill="#132A13"/>
<rect x="264" y="43" width="6" height="6" fill="#132A13"/>
<rect x="264" y="31" width="6" height="6" fill="#132A13"/>
<rect x="264" y="13" width="6" height="6" fill="#132A13"/>
<rect x="264" y="49" width="6" height="6" fill="#132A13"/>
<rect x="264" y="37" width="6" height="6" fill="#132A13"/>
<rect x="264" y="19" width="6" height="6" fill="#132A13"/>
<rect x="270" y="43" width="6" height="6" fill="#132A13"/>
<rect x="270" y="49" width="6" height="6" fill="#132A13"/>
<rect x="276" y="43" width="6" height="6" fill="#132A13"/>
<rect x="276" y="49" width="6" height="6" fill="#132A13"/>
<rect x="288" y="43" width="6" height="6" fill="#132A13"/>
<rect x="282" y="49" width="6" height="6" fill="#132A13"/>
<rect x="288" y="49" width="6" height="6" fill="#132A13"/>
<rect x="276" y="25" width="6" height="6" fill="#132A13"/>
<rect x="252" y="7" width="6" height="6" fill="#4F772D"/>
<rect x="270" y="7" width="6" height="6" fill="#4F772D"/>
<rect x="258" y="7" width="6" height="6" fill="#4F772D"/>
<rect x="258" y="25" width="6" height="6" fill="#4F772D"/>
<rect x="264" y="7" width="6" height="6" fill="#4F772D"/>
<rect x="264" y="25" width="6" height="6" fill="#4F772D"/>
<rect x="246" y="13" width="6" height="6" fill="#4F772D"/>
<rect x="252" y="13" width="6" height="6" fill="#4F772D"/>
<rect x="276" y="13" width="6" height="6" fill="#4F772D"/>
<rect x="276" y="31" width="6" height="6" fill="#4F772D"/>
<rect x="270" y="13" width="6" height="6" fill="#4F772D"/>
<rect x="246" y="19" width="6" height="6" fill="#4F772D"/>
<rect x="252" y="19" width="6" height="6" fill="#4F772D"/>
<rect x="276" y="19" width="6" height="6" fill="#4F772D"/>
<rect x="276" y="37" width="6" height="6" fill="#4F772D"/>
<rect x="270" y="19" width="6" height="6" fill="#4F772D"/>
<rect x="246" y="25" width="6" height="6" fill="#4F772D"/>
<rect x="252" y="25" width="6" height="6" fill="#4F772D"/>
<rect x="270" y="25" width="6" height="6" fill="#4F772D"/>
<rect x="246" y="31" width="6" height="6" fill="#4F772D"/>
<rect x="252" y="31" width="6" height="6" fill="#4F772D"/>
<rect x="270" y="31" width="6" height="6" fill="#4F772D"/>
<rect x="246" y="37" width="6" height="6" fill="#4F772D"/>
<rect x="252" y="37" width="6" height="6" fill="#4F772D"/>
<rect x="270" y="37" width="6" height="6" fill="#4F772D"/>
<rect x="126" y="7" width="6" height="6" fill="#4F772D"/>
<rect x="150" y="7" width="6" height="6" fill="#4F772D"/>
<rect x="126" y="19" width="6" height="6" fill="#4F772D"/>
<rect x="150" y="19" width="6" height="6" fill="#4F772D"/>
<rect x="126" y="13" width="6" height="6" fill="#4F772D"/>
<rect x="150" y="13" width="6" height="6" fill="#4F772D"/>
<rect x="126" y="25" width="6" height="6" fill="#4F772D"/>
<rect x="150" y="25" width="6" height="6" fill="#4F772D"/>
<rect x="120" y="1" width="6" height="6" fill="#132A13"/>
<rect x="126" y="1" width="6" height="6" fill="#132A13"/>
<rect x="132" y="1" width="6" height="6" fill="#132A13"/>
<rect x="138" y="1" width="6" height="6" fill="#132A13"/>
<rect x="138" y="7" width="6" height="6" fill="#132A13"/>
<rect x="138" y="13" width="6" height="6" fill="#132A13"/>
<rect x="138" y="19" width="6" height="6" fill="#132A13"/>
<rect x="138" y="25" width="6" height="6" fill="#132A13"/>
<rect x="138" y="43" width="6" height="6" fill="#132A13"/>
<rect x="138" y="49" width="6" height="6" fill="#132A13"/>
<rect x="144" y="1" width="6" height="6" fill="#132A13"/>
<rect x="144" y="7" width="6" height="6" fill="#132A13"/>
<rect x="144" y="13" width="6" height="6" fill="#132A13"/>
<rect x="144" y="19" width="6" height="6" fill="#132A13"/>
<rect x="144" y="25" width="6" height="6" fill="#132A13"/>
<rect x="144" y="43" width="6" height="6" fill="#132A13"/>
<rect x="144" y="49" width="6" height="6" fill="#132A13"/>
<rect x="150" y="1" width="6" height="6" fill="#132A13"/>
<rect x="156" y="1" width="6" height="6" fill="#132A13"/>
<rect x="120" y="7" width="6" height="6" fill="#132A13"/>
<rect x="162" y="7" width="6" height="6" fill="#132A13"/>
<rect x="162" y="1" width="6" height="6" fill="#132A13"/>
<rect x="168" y="7" width="6" height="6" fill="#132A13"/>
<rect x="120" y="13" width="6" height="6" fill="#132A13"/>
<rect x="162" y="13" width="6" height="6" fill="#132A13"/>
<rect x="168" y="13" width="6" height="6" fill="#132A13"/>
<rect x="120" y="19" width="6" height="6" fill="#132A13"/>
<rect x="162" y="19" width="6" height="6" fill="#132A13"/>
<rect x="168" y="19" width="6" height="6" fill="#132A13"/>
<rect x="120" y="25" width="6" height="6" fill="#132A13"/>
<rect x="162" y="25" width="6" height="6" fill="#132A13"/>
<rect x="168" y="25" width="6" height="6" fill="#132A13"/>
<rect x="126" y="31" width="6" height="6" fill="#132A13"/>
<rect width="6" height="6" transform="matrix(-1 0 0 1 162 31)" fill="#132A13"/>
<rect width="6" height="6" transform="matrix(-1 0 0 1 168 37)" fill="#132A13"/>
<rect x="132" y="37" width="6" height="6" fill="#132A13"/>
<rect width="6" height="6" transform="matrix(-1 0 0 1 156 37)" fill="#132A13"/>
<rect width="6" height="6" transform="matrix(-1 0 0 1 162 43)" fill="#132A13"/>
<rect x="120" y="31" width="6" height="6" fill="#132A13"/>
<rect width="6" height="6" transform="matrix(-1 0 0 1 168 31)" fill="#132A13"/>
<rect width="6" height="6" transform="matrix(-1 0 0 1 174 37)" fill="#132A13"/>
<rect width="6" height="6" transform="matrix(-1 0 0 1 174 31)" fill="#132A13"/>
<rect x="126" y="37" width="6" height="6" fill="#132A13"/>
<rect width="6" height="6" transform="matrix(-1 0 0 1 162 37)" fill="#132A13"/>
<rect width="6" height="6" transform="matrix(-1 0 0 1 168 43)" fill="#132A13"/>
<rect x="132" y="43" width="6" height="6" fill="#132A13"/>
<rect width="6" height="6" transform="matrix(-1 0 0 1 156 43)" fill="#132A13"/>
<rect width="6" height="6" transform="matrix(-1 0 0 1 162 49)" fill="#132A13"/>
<rect width="6" height="6" transform="matrix(-1 0 0 1 156 49)" fill="#132A13"/>
<rect x="132" y="7" width="6" height="6" fill="#4F772D"/>
<rect x="156" y="7" width="6" height="6" fill="#4F772D"/>
<rect x="132" y="19" width="6" height="6" fill="#4F772D"/>
<rect x="156" y="19" width="6" height="6" fill="#4F772D"/>
<rect x="132" y="13" width="6" height="6" fill="#4F772D"/>
<rect x="156" y="13" width="6" height="6" fill="#4F772D"/>
<rect x="132" y="25" width="6" height="6" fill="#4F772D"/>
<rect x="156" y="25" width="6" height="6" fill="#4F772D"/>
<rect x="132" y="31" width="6" height="6" fill="#4F772D"/>
<rect x="150" y="31" width="6" height="6" fill="#4F772D"/>
<rect x="138" y="37" width="6" height="6" fill="#4F772D"/>
<rect x="138" y="31" width="6" height="6" fill="#4F772D"/>
<rect x="144" y="37" width="6" height="6" fill="#4F772D"/>
<rect x="144" y="31" width="6" height="6" fill="#4F772D"/>
<rect x="66" y="7" width="6" height="6" fill="#4F772D"/>
<rect x="66" y="19" width="6" height="6" fill="#4F772D"/>
<rect x="78" y="19" width="6" height="6" fill="#4F772D"/>
<rect x="66" y="31" width="6" height="6" fill="#4F772D"/>
<rect x="66" y="13" width="6" height="6" fill="#4F772D"/>
<rect x="66" y="25" width="6" height="6" fill="#4F772D"/>
<rect x="78" y="25" width="6" height="6" fill="#4F772D"/>
<rect x="66" y="37" width="6" height="6" fill="#4F772D"/>
<rect x="60" y="1" width="6" height="6" fill="#132A13"/>
<rect x="102" y="1" width="6" height="6" fill="#132A13"/>
<rect x="60" y="43" width="6" height="6" fill="#132A13"/>
<rect x="102" y="43" width="6" height="6" fill="#132A13"/>
<rect x="102" y="49" width="6" height="6" fill="#132A13"/>
<rect x="108" y="49" width="6" height="6" fill="#132A13"/>
<rect x="66" y="1" width="6" height="6" fill="#132A13"/>
<rect x="66" y="43" width="6" height="6" fill="#132A13"/>
<rect x="66" y="49" width="6" height="6" fill="#132A13"/>
<rect x="72" y="1" width="6" height="6" fill="#132A13"/>
<rect x="72" y="43" width="6" height="6" fill="#132A13"/>
<rect x="72" y="49" width="6" height="6" fill="#132A13"/>
<rect x="78" y="1" width="6" height="6" fill="#132A13"/>
<rect x="78" y="13" width="6" height="6" fill="#132A13"/>
<rect x="78" y="31" width="6" height="6" fill="#132A13"/>
<rect x="78" y="43" width="6" height="6" fill="#132A13"/>
<rect x="78" y="49" width="6" height="6" fill="#132A13"/>
<rect x="84" y="1" width="6" height="6" fill="#132A13"/>
<rect x="84" y="13" width="6" height="6" fill="#132A13"/>
<rect x="84" y="31" width="6" height="6" fill="#132A13"/>
<rect x="84" y="43" width="6" height="6" fill="#132A13"/>
<rect x="84" y="49" width="6" height="6" fill="#132A13"/>
<rect x="90" y="1" width="6" height="6" fill="#132A13"/>
<rect x="90" y="13" width="6" height="6" fill="#132A13"/>
<rect x="90" y="31" width="6" height="6" fill="#132A13"/>
<rect x="90" y="43" width="6" height="6" fill="#132A13"/>
<rect x="90" y="49" width="6" height="6" fill="#132A13"/>
<rect x="96" y="1" width="6" height="6" fill="#132A13"/>
<rect x="96" y="13" width="6" height="6" fill="#132A13"/>
<rect x="96" y="31" width="6" height="6" fill="#132A13"/>
<rect x="96" y="43" width="6" height="6" fill="#132A13"/>
<rect x="96" y="49" width="6" height="6" fill="#132A13"/>
<rect x="60" y="7" width="6" height="6" fill="#132A13"/>
<rect x="102" y="7" width="6" height="6" fill="#132A13"/>
<rect x="108" y="7" width="6" height="6" fill="#132A13"/>
<rect x="108" y="37" width="6" height="6" fill="#132A13"/>
<rect x="60" y="13" width="6" height="6" fill="#132A13"/>
<rect x="102" y="13" width="6" height="6" fill="#132A13"/>
<rect x="108" y="13" width="6" height="6" fill="#132A13"/>
<rect x="108" y="19" width="6" height="6" fill="#132A13"/>
<rect x="108" y="43" width="6" height="6" fill="#132A13"/>
<rect x="60" y="19" width="6" height="6" fill="#132A13"/>
<rect x="96" y="19" width="6" height="6" fill="#132A13"/>
<rect x="102" y="19" width="6" height="6" fill="#132A13"/>
<rect x="60" y="25" width="6" height="6" fill="#132A13"/>
<rect x="96" y="25" width="6" height="6" fill="#132A13"/>
<rect x="102" y="25" width="6" height="6" fill="#132A13"/>
<rect x="60" y="31" width="6" height="6" fill="#132A13"/>
<rect x="102" y="31" width="6" height="6" fill="#132A13"/>
<rect x="60" y="37" width="6" height="6" fill="#132A13"/>
<rect x="102" y="37" width="6" height="6" fill="#132A13"/>
<rect x="72" y="7" width="6" height="6" fill="#4F772D"/>
<rect x="72" y="19" width="6" height="6" fill="#4F772D"/>
<rect x="84" y="19" width="6" height="6" fill="#4F772D"/>
<rect x="90" y="19" width="6" height="6" fill="#4F772D"/>
<rect x="72" y="31" width="6" height="6" fill="#4F772D"/>
<rect x="72" y="13" width="6" height="6" fill="#4F772D"/>
<rect x="72" y="25" width="6" height="6" fill="#4F772D"/>
<rect x="84" y="25" width="6" height="6" fill="#4F772D"/>
<rect x="90" y="25" width="6" height="6" fill="#4F772D"/>
<rect x="72" y="37" width="6" height="6" fill="#4F772D"/>
<rect x="96" y="7" width="6" height="6" fill="#4F772D"/>
<rect x="96" y="37" width="6" height="6" fill="#4F772D"/>
<rect x="90" y="7" width="6" height="6" fill="#4F772D"/>
<rect x="90" y="37" width="6" height="6" fill="#4F772D"/>
<rect x="78" y="7" width="6" height="6" fill="#4F772D"/>
<rect x="78" y="37" width="6" height="6" fill="#4F772D"/>
<rect x="84" y="7" width="6" height="6" fill="#4F772D"/>
<rect x="84" y="37" width="6" height="6" fill="#4F772D"/>
<rect x="186" y="7" width="6" height="6" fill="#4F772D"/>
<rect x="186" y="19" width="6" height="6" fill="#4F772D"/>
<rect x="198" y="19" width="6" height="6" fill="#4F772D"/>
<rect x="186" y="31" width="6" height="6" fill="#4F772D"/>
<rect x="186" y="13" width="6" height="6" fill="#4F772D"/>
<rect x="186" y="25" width="6" height="6" fill="#4F772D"/>
<rect x="198" y="25" width="6" height="6" fill="#4F772D"/>
<rect x="186" y="37" width="6" height="6" fill="#4F772D"/>
<rect x="180" y="1" width="6" height="6" fill="#132A13"/>
<rect x="222" y="1" width="6" height="6" fill="#132A13"/>
<rect x="180" y="43" width="6" height="6" fill="#132A13"/>
<rect x="222" y="43" width="6" height="6" fill="#132A13"/>
<rect x="222" y="49" width="6" height="6" fill="#132A13"/>
<rect x="228" y="49" width="6" height="6" fill="#132A13"/>
<rect x="186" y="1" width="6" height="6" fill="#132A13"/>
<rect x="186" y="43" width="6" height="6" fill="#132A13"/>
<rect x="186" y="49" width="6" height="6" fill="#132A13"/>
<rect x="192" y="1" width="6" height="6" fill="#132A13"/>
<rect x="192" y="43" width="6" height="6" fill="#132A13"/>
<rect x="192" y="49" width="6" height="6" fill="#132A13"/>
<rect x="198" y="1" width="6" height="6" fill="#132A13"/>
<rect x="198" y="13" width="6" height="6" fill="#132A13"/>
<rect x="198" y="31" width="6" height="6" fill="#132A13"/>
<rect x="198" y="43" width="6" height="6" fill="#132A13"/>
<rect x="198" y="49" width="6" height="6" fill="#132A13"/>
<rect x="204" y="1" width="6" height="6" fill="#132A13"/>
<rect x="204" y="13" width="6" height="6" fill="#132A13"/>
<rect x="204" y="31" width="6" height="6" fill="#132A13"/>
<rect x="204" y="43" width="6" height="6" fill="#132A13"/>
<rect x="204" y="49" width="6" height="6" fill="#132A13"/>
<rect x="210" y="1" width="6" height="6" fill="#132A13"/>
<rect x="210" y="13" width="6" height="6" fill="#132A13"/>
<rect x="210" y="31" width="6" height="6" fill="#132A13"/>
<rect x="210" y="43" width="6" height="6" fill="#132A13"/>
<rect x="210" y="49" width="6" height="6" fill="#132A13"/>
<rect x="216" y="1" width="6" height="6" fill="#132A13"/>
<rect x="216" y="13" width="6" height="6" fill="#132A13"/>
<rect x="216" y="31" width="6" height="6" fill="#132A13"/>
<rect x="216" y="43" width="6" height="6" fill="#132A13"/>
<rect x="216" y="49" width="6" height="6" fill="#132A13"/>
<rect x="180" y="7" width="6" height="6" fill="#132A13"/>
<rect x="222" y="7" width="6" height="6" fill="#132A13"/>
<rect x="228" y="7" width="6" height="6" fill="#132A13"/>
<rect x="228" y="37" width="6" height="6" fill="#132A13"/>
<rect x="180" y="13" width="6" height="6" fill="#132A13"/>
<rect x="222" y="13" width="6" height="6" fill="#132A13"/>
<rect x="228" y="13" width="6" height="6" fill="#132A13"/>
<rect x="228" y="19" width="6" height="6" fill="#132A13"/>
<rect x="228" y="43" width="6" height="6" fill="#132A13"/>
<rect x="180" y="19" width="6" height="6" fill="#132A13"/>
<rect x="216" y="19" width="6" height="6" fill="#132A13"/>
<rect x="222" y="19" width="6" height="6" fill="#132A13"/>
<rect x="180" y="25" width="6" height="6" fill="#132A13"/>
<rect x="216" y="25" width="6" height="6" fill="#132A13"/>
<rect x="222" y="25" width="6" height="6" fill="#132A13"/>
<rect x="180" y="31" width="6" height="6" fill="#132A13"/>
<rect x="222" y="31" width="6" height="6" fill="#132A13"/>
<rect x="180" y="37" width="6" height="6" fill="#132A13"/>
<rect x="222" y="37" width="6" height="6" fill="#132A13"/>
<rect x="192" y="7" width="6" height="6" fill="#4F772D"/>
<rect x="192" y="19" width="6" height="6" fill="#4F772D"/>
<rect x="204" y="19" width="6" height="6" fill="#4F772D"/>
<rect x="210" y="19" width="6" height="6" fill="#4F772D"/>
<rect x="192" y="31" width="6" height="6" fill="#4F772D"/>
<rect x="192" y="13" width="6" height="6" fill="#4F772D"/>
<rect x="192" y="25" width="6" height="6" fill="#4F772D"/>
<rect x="204" y="25" width="6" height="6" fill="#4F772D"/>
<rect x="210" y="25" width="6" height="6" fill="#4F772D"/>
<rect x="192" y="37" width="6" height="6" fill="#4F772D"/>
<rect x="216" y="7" width="6" height="6" fill="#4F772D"/>
<rect x="216" y="37" width="6" height="6" fill="#4F772D"/>
<rect x="210" y="7" width="6" height="6" fill="#4F772D"/>
<rect x="210" y="37" width="6" height="6" fill="#4F772D"/>
<rect x="198" y="7" width="6" height="6" fill="#4F772D"/>
<rect x="198" y="37" width="6" height="6" fill="#4F772D"/>
<rect x="204" y="7" width="6" height="6" fill="#4F772D"/>
<rect x="204" y="37" width="6" height="6" fill="#4F772D"/>
<rect x="365" y="42" width="6" height="6" fill="#132A13"/>
<rect x="359" y="6" width="6" height="6" fill="#132A13"/>
<rect x="401" y="6" width="6" height="6" fill="#132A13"/>
<rect x="401" y="12" width="6" height="6" fill="#132A13"/>
<path d="M401 18H407V24H401V18Z" fill="#132A13"/>
<rect x="407" y="6" width="6" height="6" fill="#132A13"/>
<rect x="407" y="12" width="6" height="6" fill="#132A13"/>
<rect x="407" y="18" width="6" height="6" fill="#132A13"/>
<rect x="371" y="18" width="6" height="6" fill="#132A13"/>
<rect x="389" y="18" width="6" height="6" fill="#132A13"/>
<rect x="359" y="36" width="6" height="6" fill="#132A13"/>
<rect x="359" y="30" width="6" height="6" fill="#132A13"/>
<rect x="359" y="12" width="6" height="6" fill="#132A13"/>
<rect x="371" y="24" width="6" height="6" fill="#132A13"/>
<rect x="389" y="24" width="6" height="6" fill="#132A13"/>
<rect x="365" y="48" width="6" height="6" fill="#132A13"/>
<rect x="359" y="42" width="6" height="6" fill="#132A13"/>
<rect x="365" width="6" height="6" fill="#132A13"/>
<rect x="365" y="12" width="6" height="6" fill="#132A13"/>
<rect x="365" y="30" width="6" height="6" fill="#132A13"/>
<rect x="359" width="6" height="6" fill="#132A13"/>
<rect x="371" y="42" width="6" height="6" fill="#132A13"/>
<rect x="371" y="48" width="6" height="6" fill="#132A13"/>
<rect x="371" width="6" height="6" fill="#132A13"/>
<rect x="371" y="12" width="6" height="6" fill="#132A13"/>
<rect x="389" y="12" width="6" height="6" fill="#132A13"/>
<rect x="395" y="12" width="6" height="6" fill="#132A13"/>
<rect x="395" y="18" width="6" height="6" fill="#132A13"/>
<rect x="371" y="30" width="6" height="6" fill="#132A13"/>
<rect x="389" y="30" width="6" height="6" fill="#132A13"/>
<rect x="395" y="30" width="6" height="6" fill="#132A13"/>
<rect x="401" y="30" width="6" height="6" fill="#132A13"/>
<rect x="377" y="42" width="6" height="6" fill="#132A13"/>
<rect x="377" y="48" width="6" height="6" fill="#132A13"/>
<rect x="377" width="6" height="6" fill="#132A13"/>
<rect x="383" y="42" width="6" height="6" fill="#132A13"/>
<rect x="383" y="48" width="6" height="6" fill="#132A13"/>
<rect x="383" width="6" height="6" fill="#132A13"/>
<rect x="389" y="42" width="6" height="6" fill="#132A13"/>
<rect x="389" y="48" width="6" height="6" fill="#132A13"/>
<rect x="389" width="6" height="6" fill="#132A13"/>
<rect x="395" y="42" width="6" height="6" fill="#132A13"/>
<rect x="395" y="48" width="6" height="6" fill="#132A13"/>
<rect x="395" width="6" height="6" fill="#132A13"/>
<rect x="401" width="6" height="6" fill="#132A13"/>
<rect x="401" y="36" width="6" height="6" fill="#132A13"/>
<rect x="407" y="36" width="6" height="6" fill="#132A13"/>
<rect x="401" y="42" width="6" height="6" fill="#132A13"/>
<rect x="407" y="42" width="6" height="6" fill="#132A13"/>
<rect x="401" y="48" width="6" height="6" fill="#132A13"/>
<rect x="407" y="48" width="6" height="6" fill="#132A13"/>
<rect x="377" y="36" width="6" height="6" fill="#4F772D"/>
<rect x="377" y="30" width="6" height="6" fill="#4F772D"/>
<rect x="377" y="24" width="6" height="6" fill="#4F772D"/>
<rect x="377" y="18" width="6" height="6" fill="#4F772D"/>
<rect x="377" y="12" width="6" height="6" fill="#4F772D"/>
<rect x="377" y="6" width="6" height="6" fill="#4F772D"/>
<rect x="365" y="36" width="6" height="6" fill="#4F772D"/>
<rect x="365" y="6" width="6" height="6" fill="#4F772D"/>
<rect x="395" y="36" width="6" height="6" fill="#4F772D"/>
<rect x="395" y="6" width="6" height="6" fill="#4F772D"/>
<rect x="371" y="36" width="6" height="6" fill="#4F772D"/>
<rect x="371" y="6" width="6" height="6" fill="#4F772D"/>
<rect x="383" y="36" width="6" height="6" fill="#4F772D"/>
<rect x="383" y="30" width="6" height="6" fill="#4F772D"/>
<rect x="383" y="24" width="6" height="6" fill="#4F772D"/>
<rect x="383" y="18" width="6" height="6" fill="#4F772D"/>
<rect x="383" y="12" width="6" height="6" fill="#4F772D"/>
<rect x="383" y="6" width="6" height="6" fill="#4F772D"/>
<rect x="389" y="36" width="6" height="6" fill="#4F772D"/>
<rect x="389" y="6" width="6" height="6" fill="#4F772D"/>
<rect x="306" y="6" width="6" height="6" fill="#132A13"/>
<rect x="306" width="6" height="6" fill="#132A13"/>
<rect x="305" y="48" width="6" height="6" fill="#132A13"/>
<rect x="305" y="42" width="6" height="6" fill="#132A13"/>
<rect x="305" y="30" width="6" height="6" fill="#132A13"/>
<rect x="312" width="6" height="6" fill="#132A13"/>
<rect x="311" y="48" width="6" height="6" fill="#132A13"/>
<rect x="311" y="42" width="6" height="6" fill="#132A13"/>
<rect x="311" y="30" width="6" height="6" fill="#132A13"/>
<rect x="318" width="6" height="6" fill="#132A13"/>
<rect x="318" y="12" width="6" height="6" fill="#132A13"/>
<rect x="317" y="48" width="6" height="6" fill="#132A13"/>
<rect x="317" y="42" width="6" height="6" fill="#132A13"/>
<rect x="317" y="30" width="6" height="6" fill="#132A13"/>
<rect x="324" width="6" height="6" fill="#132A13"/>
<rect x="324" y="12" width="6" height="6" fill="#132A13"/>
<rect x="323" y="48" width="6" height="6" fill="#132A13"/>
<rect x="323" y="42" width="6" height="6" fill="#132A13"/>
<rect x="323" y="30" width="6" height="6" fill="#132A13"/>
<rect x="330" width="6" height="6" fill="#132A13"/>
<rect x="330" y="12" width="6" height="6" fill="#132A13"/>
<rect x="329" y="48" width="6" height="6" fill="#132A13"/>
<rect x="329" y="42" width="6" height="6" fill="#132A13"/>
<rect x="336" width="6" height="6" fill="#132A13"/>
<rect x="336" y="12" width="6" height="6" fill="#132A13"/>
<rect x="335" y="48" width="6" height="6" fill="#132A13"/>
<rect x="335" y="42" width="6" height="6" fill="#132A13"/>
<rect x="335" y="36" width="6" height="6" fill="#132A13"/>
<rect x="341" y="12" width="6" height="6" fill="#132A13"/>
<rect x="341" y="6" width="6" height="6" fill="#132A13"/>
<rect x="300" y="6" width="6" height="6" fill="#132A13"/>
<rect x="306" y="6" width="6" height="6" fill="#132A13"/>
<rect x="336" y="6" width="6" height="6" fill="#132A13"/>
<rect x="341" y="18" width="6" height="6" fill="#132A13"/>
<rect x="300" y="12" width="6" height="6" fill="#132A13"/>
<rect x="341" y="24" width="6" height="6" fill="#132A13"/>
<rect x="347" y="24" width="6" height="6" fill="#132A13"/>
<rect x="300" y="18" width="6" height="6" fill="#132A13"/>
<rect x="336" y="18" width="6" height="6" fill="#132A13"/>
<rect x="341" y="30" width="6" height="6" fill="#132A13"/>
<rect x="347" y="30" width="6" height="6" fill="#132A13"/>
<rect x="300" y="24" width="6" height="6" fill="#132A13"/>
<rect x="305" y="24" width="6" height="6" fill="#132A13"/>
<rect x="341" y="36" width="6" height="6" fill="#132A13"/>
<rect x="347" y="36" width="6" height="6" fill="#132A13"/>
<rect x="341" y="42" width="6" height="6" fill="#132A13"/>
<rect x="347" y="42" width="6" height="6" fill="#132A13"/>
<rect x="305" y="36" width="6" height="6" fill="#132A13"/>
<rect x="341" y="48" width="6" height="6" fill="#132A13"/>
<rect x="312" y="6" width="6" height="6" fill="#4F772D"/>
<rect x="311" y="36" width="6" height="6" fill="#4F772D"/>
<rect x="318" y="18" width="6" height="6" fill="#4F772D"/>
<rect x="311" y="24" width="6" height="6" fill="#4F772D"/>
<rect x="306" y="12" width="6" height="6" fill="#4F772D"/>
<rect x="306" y="18" width="6" height="6" fill="#4F772D"/>
<rect x="329" y="24" width="6" height="6" fill="#4F772D"/>
<rect x="329" y="30" width="6" height="6" fill="#4F772D"/>
<rect x="330" y="6" width="6" height="6" fill="#4F772D"/>
<rect x="329" y="36" width="6" height="6" fill="#4F772D"/>
<rect x="312" y="12" width="6" height="6" fill="#4F772D"/>
<rect x="312" y="18" width="6" height="6" fill="#4F772D"/>
<rect x="318" y="6" width="6" height="6" fill="#4F772D"/>
<rect x="317" y="36" width="6" height="6" fill="#4F772D"/>
<rect x="324" y="18" width="6" height="6" fill="#4F772D"/>
<rect x="317" y="24" width="6" height="6" fill="#4F772D"/>
<rect x="335" y="24" width="6" height="6" fill="#4F772D"/>
<rect x="335" y="30" width="6" height="6" fill="#4F772D"/>
<rect x="324" y="6" width="6" height="6" fill="#4F772D"/>
<rect x="323" y="36" width="6" height="6" fill="#4F772D"/>
<rect x="330" y="18" width="6" height="6" fill="#4F772D"/>
<rect x="323" y="24" width="6" height="6" fill="#4F772D"/>
<rect x="6" y="7" width="6" height="6" fill="#4F772D"/>
<rect y="1" width="6" height="6" fill="#132A13"/>
<rect x="6" y="1" width="6" height="6" fill="#132A13"/>
<rect x="12" y="1" width="6" height="6" fill="#132A13"/>
<rect x="18" y="1" width="6" height="6" fill="#132A13"/>
<rect x="24" y="1" width="6" height="6" fill="#132A13"/>
<rect x="30" y="1" width="6" height="6" fill="#132A13"/>
<rect x="36" y="1" width="6" height="6" fill="#132A13"/>
<rect x="36" y="7" width="6" height="6" fill="#132A13"/>
<rect x="42" y="7" width="6" height="6" fill="#132A13"/>
<rect y="7" width="6" height="6" fill="#132A13"/>
<rect x="42" y="13" width="6" height="6" fill="#132A13"/>
<rect y="13" width="6" height="6" fill="#132A13"/>
<rect x="48" y="13" width="6" height="6" fill="#132A13"/>
<rect x="42" y="19" width="6" height="6" fill="#132A13"/>
<rect y="19" width="6" height="6" fill="#132A13"/>
<rect x="48" y="19" width="6" height="6" fill="#132A13"/>
<rect x="42" y="25" width="6" height="6" fill="#132A13"/>
<rect y="25" width="6" height="6" fill="#132A13"/>
<rect x="48" y="25" width="6" height="6" fill="#132A13"/>
<rect x="42" y="31" width="6" height="6" fill="#132A13"/>
<rect y="31" width="6" height="6" fill="#132A13"/>
<rect x="48" y="31" width="6" height="6" fill="#132A13"/>
<rect x="42" y="37" width="6" height="6" fill="#132A13"/>
<rect y="37" width="6" height="6" fill="#132A13"/>
<rect x="48" y="37" width="6" height="6" fill="#132A13"/>
<rect x="42" y="43" width="6" height="6" fill="#132A13"/>
<rect y="43" width="6" height="6" fill="#132A13"/>
<rect x="6" y="43" width="6" height="6" fill="#132A13"/>
<rect x="6" y="49" width="6" height="6" fill="#132A13"/>
<rect x="12" y="43" width="6" height="6" fill="#132A13"/>
<rect x="12" y="49" width="6" height="6" fill="#132A13"/>
<rect x="18" y="43" width="6" height="6" fill="#132A13"/>
<rect x="18" y="31" width="6" height="6" fill="#132A13"/>
<rect x="18" y="13" width="6" height="6" fill="#132A13"/>
<rect x="18" y="49" width="6" height="6" fill="#132A13"/>
<rect x="18" y="37" width="6" height="6" fill="#132A13"/>
<rect x="18" y="19" width="6" height="6" fill="#132A13"/>
<rect x="24" y="43" width="6" height="6" fill="#132A13"/>
<rect x="24" y="31" width="6" height="6" fill="#132A13"/>
<rect x="24" y="13" width="6" height="6" fill="#132A13"/>
<rect x="24" y="49" width="6" height="6" fill="#132A13"/>
<rect x="24" y="37" width="6" height="6" fill="#132A13"/>
<rect x="24" y="19" width="6" height="6" fill="#132A13"/>
<rect x="30" y="43" width="6" height="6" fill="#132A13"/>
<rect x="30" y="49" width="6" height="6" fill="#132A13"/>
<rect x="36" y="43" width="6" height="6" fill="#132A13"/>
<rect x="36" y="49" width="6" height="6" fill="#132A13"/>
<rect x="48" y="43" width="6" height="6" fill="#132A13"/>
<rect x="42" y="49" width="6" height="6" fill="#132A13"/>
<rect x="48" y="49" width="6" height="6" fill="#132A13"/>
<rect x="36" y="25" width="6" height="6" fill="#132A13"/>
<rect x="12" y="7" width="6" height="6" fill="#4F772D"/>
<rect x="30" y="7" width="6" height="6" fill="#4F772D"/>
<rect x="18" y="7" width="6" height="6" fill="#4F772D"/>
<rect x="18" y="25" width="6" height="6" fill="#4F772D"/>
<rect x="24" y="7" width="6" height="6" fill="#4F772D"/>
<rect x="24" y="25" width="6" height="6" fill="#4F772D"/>
<rect x="6" y="13" width="6" height="6" fill="#4F772D"/>
<rect x="12" y="13" width="6" height="6" fill="#4F772D"/>
<rect x="36" y="13" width="6" height="6" fill="#4F772D"/>
<rect x="36" y="31" width="6" height="6" fill="#4F772D"/>
<rect x="30" y="13" width="6" height="6" fill="#4F772D"/>
<rect x="6" y="19" width="6" height="6" fill="#4F772D"/>
<rect x="12" y="19" width="6" height="6" fill="#4F772D"/>
<rect x="36" y="19" width="6" height="6" fill="#4F772D"/>
<rect x="36" y="37" width="6" height="6" fill="#4F772D"/>
<rect x="30" y="19" width="6" height="6" fill="#4F772D"/>
<rect x="6" y="25" width="6" height="6" fill="#4F772D"/>
<rect x="12" y="25" width="6" height="6" fill="#4F772D"/>
<rect x="30" y="25" width="6" height="6" fill="#4F772D"/>
<rect x="6" y="31" width="6" height="6" fill="#4F772D"/>
<rect x="12" y="31" width="6" height="6" fill="#4F772D"/>
<rect x="30" y="31" width="6" height="6" fill="#4F772D"/>
<rect x="6" y="37" width="6" height="6" fill="#4F772D"/>
<rect x="12" y="37" width="6" height="6" fill="#4F772D"/>
<rect x="30" y="37" width="6" height="6" fill="#4F772D"/>
</svg>
